<?xml version="1.0" encoding="UTF-8"?>
<!DOCTYPE svg  PUBLIC '-//W3C//DTD SVG 1.1//EN'  'http://www.w3.org/Graphics/SVG/1.1/DTD/svg11.dtd'>
<svg width="137.65mm" height="83.168mm" clip-rule="evenodd" fill-rule="evenodd" image-rendering="optimizeQuality" shape-rendering="geometricPrecision" text-rendering="geometricPrecision" viewBox="0 0 142.748 86.2458" xml:space="preserve" xmlns="http://www.w3.org/2000/svg">
 <defs>
  <style type="text/css">
   <![CDATA[
    .fil0 {fill:#1F1A17}
   ]]>
  </style>
 </defs>
  <path class="fil0" d="m102.57 33.962c-1.9848-1.0756-2.6761-2.2595-3.5998-3.7881-1.3718-2.2689-2.4224-2.3169-3.6923-4.0304-1.54-2.0781-3.2731-6.7414-2.1271-9.3529l-0.64315-0.34864c-1.7124 3.3349-0.39261 7.8186 1.6561 10.302 1.2469 1.5111 6.2401 8.2422 8.4062 7.2178zm3.8237-24.794c-2.4-0.45815-6.5468 0.020429-7.9319 1.2088 2.587 0.6586 7.2767-0.82847 10.19 0.46354 5.3237 2.361 6.121 0.90852 10.511 4.4881 2.7208 2.2185 3.7107 4.2603 7.6551 6.076 4.1448 1.908 4.258 3.8154 5.7148 7.4681 1.1901 2.9837 1.4953 5.9814 2.3011 9.0976 0.65809 2.5451 2.3776 5.9355 3.6596 8.3308 0.91734 1.7143 4.4249 19.369-0.021051 18.131-3.0549-0.85087-6.2119-5.2153-7.5499-7.3237-1.4728-2.3208-0.60385-2.6604-1.4477-5.1236-0.90884-2.6534 0.77444-4.1498-0.37032-5.4465l-0.9414 1.7312c-4.7626-1.4413-5.9701-4.0532-7.7674-7.2008-0.8659-1.5163-2.0167-2.6288-2.7435-4.0952-0.69811-1.4089-0.74882-3.8491-1.6586-5.0048-1.9058 0.70402 0.36067 1.9527-0.43274 2.9175-1.4372 0.24473-1.4582-1.9251-2.7792-2.293-2.3784-0.66234-0.50181 1.7671 0.019496 2.3651 1.7405 1.9968 1.4092 1.1091 3.3702 2.5537 2.0164 1.4854 3.4534 4.3023 4.5835 6.3244 2.0165 3.6076 3.0883 3.0309 6.452 5.2699 1.2153 0.80897 0.77848 2.1912 0.99117 3.8962 0.23063 1.8496 0.99553 2.2383 0.97769 3.9037l-1.4096-0.39261c-1.4976-0.41708-2.307-0.028932-2.9576 1.0751 1.4691 0.37426 1.4419 0.021881 2.1799 0.35393l3.2045 0.76594c0.017318 0.0047702 4.6458 5.1426 4.919 5.3957l-5.2358-0.16737-0.20554 0.77236 3.603 0.53074-1.6176 1.851c3.1778 0.03391 3.3226-2.1724 6.6729 0.081094 1.9166 1.2891 3.5634 4.0709 2.82 6.7399l-0.29441 1.0573c-0.52929 1.9003-2.6262 2.6865-4.4075 2.1904l-1.7622-0.49082c-2.5082-0.69853-2.7236-6.5554-6.7628-8.9558-5.1761-3.0761-1.3675-0.62542-4.0824-4.2309-0.9023-1.1986-3.8341-2.6739-5.8478-3.2347 0.069583-1.6245-0.92864-6.2102-0.70019-7.0306l0.29441-1.0572c0.73358-2.6339 3.5694-2.6382 4.3574-4.8056l-0.5743-0.5967c-1.1373 0.37498-4.2108 2.8472-4.644 4.403l-0.49071 1.7621c-1.5862-0.93486-1.677-2.7456-4.6974-3.5867l-0.35248-0.098205c-1.2054-0.33568-3.0446 1.084-3.6045 2.0342 3.0294 0.57824 2.0392-2.2801 6.5564 1.9436 1.4512 1.3568 2.5358 4.5371 2.3171 6.3239l-2.1686 0.88509 0.14259 0.34968c3.1605 0.80462 10.036 2.3572 9.1786 5.7088l-2.3003 1.1788 0.20585 0.40174c1.7717 0.33817 1.4875-0.34522 3.0156 0.080368l1.7622 0.49082c3.1518 0.87772 5.6124 4.3922 4.675 7.7578-0.7452 2.6759-4.9699 3.6451-7.4212 3.186-3.7599-0.70434-3.1284-4.2511-4.574-6.8127-1.8636-3.3022-5.0638-3.7585-5.6272-6.0324-0.65477-2.6432-2.6085-5.0893-6.101-6.062-0.44892-2.5271 0.31608-3.8906-1.1686-6.1723-0.85626-1.3156-2.7704-4.0387-4.5816-4.5431l-1.7621-0.49082c-1.7212-0.4793-2.5795-0.31878-3.5644 0.52639 1.9926 0.5073 2.1576-0.15866 4.073 0.37478l0.70486 0.19631c3.8552 1.0736 5.3947 6.2323 5.151 9.5446l-3.4642 1.1624 0.14643 0.43668c1.9896 0.37975 2.113-0.55076 3.8187-0.075702l0.35248 0.098101c2.9096 0.81032 5.5256 3.9782 5.42 6.4464-1.7709-0.4511-2.5319-0.34366-3.3101 0.97686 1.6905 0.32261 1.9392-0.21954 3.7206 0.27667l0.35248 0.098101c3.5088 0.97717 5.1064 2.998 5.5574 5.7748 0.21632 1.3314 0.25936 3.1601-0.84599 4.1419-0.69469 0.61712-3.1526 1.5304-4.0336 1.2851l-2.8195-0.78522c-4.9285-1.3726-3.7062-6.5454-6.8968-10.068-1.0552-1.1652-1.7801-0.84195-2.2757-1.9832-0.47402-1.0917-0.076739-1.4418-0.95726-3.0241-0.85087-1.529-2.548-3.8438-4.5244-4.5755l0.29441-1.0572c0.80897-2.9047-2.6837-8.3426-5.4379-9.1096-2.3064-0.64243-3.1693 0.2075-5.2283-0.31691l-0.39261 1.4097c2.9548 0.56403 2.9589-1.9551 7.3453 1.4984 1.9815 1.56 3.2107 3.9807 2.4599 6.9288l-1.0572-0.29451c-1.3474-0.37519-0.15835 0.072487-0.975-0.67551l-2.3351 1.6525c1.7716 0.33817 1.4875-0.34532 3.0157 0.080264l0.70475 0.19631c2.8104 0.78273 6.0804 4.6077 5.5763 7.2493-1.8666-0.47526-2.1632-0.37747-2.9578 1.0751 2.1238 0.40537 0.93123-0.50015 2.3109-0.11594l0.70475 0.19631c3.7379 1.041 6.1949 6.3916 5.1436 10.167l-0.39261 1.4097c-0.30696 1.1022-0.9107 0.82224-1.8023 1.017-1.445-1.2646-2.3077-0.70423-4.2093-2.674-1.6381-1.697-1.6028-1.9394-2.8347-3.7468-1.761-2.584-3.4906-4.8838-5.3852-7.3572-2.4761-3.2322-2.9594-4.1212-4.666-7.7629-0.60924-1.3002-1.6273-2.708-2.2578-4.0723-0.55967-1.2109-0.95332-3.5514-1.6002-4.4436-1.8954-2.6139-3.7485-4.2808-5.376-7.3622-1.2778-2.419-2.394-5.9468-2.5894-8.935-0.17546-2.6838-0.26392-7.5177 0.94223-10.571 0.63994-1.6198 0.46178-2.9254 1.8263-5.2026 0.99138-1.6544 2.5829-2.3813 3.1454-3.9006-2.1156-0.13326-1.3609-1.263-2.7731 0.87161-0.72871 1.1012-1.4562 2.1613-1.8709 3.5313l-1.0572-0.29441c0.44778-2.3461-2.1758-7.6252-4.0283-8.7169-0.31992 1.6765 2.9628 6.2468 3.4346 9.052 0.62055 3.6908-0.58249 7.5449-0.7034 11.684-0.22576 7.7273 2.4476 13.358 6.3391 18.7 1.4469 1.9861 1.8189 1.2189 2.6483 3.8521 0.62345 1.9796 0.86455 2.8479 1.8139 4.6199 1.3962 2.6063 2.9809 6.4208 4.8439 8.5538 2.8344 3.2451 9.4425 14.325 12.908 15.29 2.9483 0.821 4.3164-0.49942 5.1527-3.502 0.667 0.63185 2.6807 1.8859 4.287 2.3333 2.9524 0.82224 7.8287 0.28155 8.6768-2.5204 0.59037 0.55916 0.84298 0.99418 1.9183 1.2937 4.4926 1.2512 9.216 0.63579 10.479-3.5374 0.73908 0.40423 0.71211 0.57813 1.6639 0.84319l3.8768 1.0796c1.7438 0.48563 3.9796-2.0173 4.5458-4.0506 1.332-4.7828-2.3342-6.5109-3.2252-8.8731 1.0886 0.011511 2.1254-0.81416 2.4491-1.9762 0.78108-2.8045-0.54796-7.4566-0.53468-10.392 0.020429-4.5296-0.40941-5.8004-2.4228-9.3259-3.7144-6.5044-3.2454-12.521-6.1207-18.229-2.4502-4.8647-2.0939-3.6158-7.1339-6.6673-3.1317-1.8961-4.8698-4.1526-7.7216-6.3355-2.8534-2.184-7.9116-2.1049-10.359-4.8473-0.83687-0.93756-2.1517-2.5873-2.982-3.6638-1.3979-1.8118-0.61256-3.3531-2.2983-4.3465-0.1541 3.6054 3.4782 6.7281 4.2825 9.1676zm-22.364 29.848c0.005185 0.0075702 0.55926 0.53562 0.60665 0.54878 0.41999 0.11698 3.0375-0.73628 5.0694-0.49102 2.2801 0.27512 3.8222 0.68878 6.4446 1.419 4.6862 1.3053 8.2618 2.0014 11.768 1.3787-0.55055-1.4906-2.8836-0.42196-4.8252-0.65529-1.7794-0.21383-5.115-1.3536-7.001-1.8788-4.3605-1.2144-9.637-2.2307-12.063-0.32147zm9.6404-8.7078c0.016592-1.5516-0.9806-2.2687-1.5766-3.5658-0.68795-1.4971-0.064917-2.758-1.787-3.447-0.077257 1.806 1.8964 6.1482 3.3635 7.0128z"/>
  <path class="fil0" d="m36.918 37.347c1.8846-1.243 2.4711-2.4822 3.2593-4.0847 1.1708-2.3788 2.2133-2.5173 3.3307-4.3342 1.3548-2.2031 2.6789-6.9987 1.3118-9.5015l0.61059-0.40288c1.9939 3.1746 1.066 7.7556-0.76065 10.407-1.1118 1.6132-5.5053 8.7502-7.7517 7.9165zm-5.9495-24.372c2.3513-0.66358 6.524-0.54474 8.0065 0.51964-2.5204 0.87949-7.321-0.19724-10.112 1.3415-5.1001 2.8116-6.0197 1.4335-10.084 5.3784-2.5192 2.4452-3.3291 4.5648-7.1021 6.7141-3.9647 2.2587-3.9127 4.1688-5.0489 7.9335-0.92812 3.0754-0.97334 6.0882-1.5072 9.2624-0.43596 2.5923-1.8566 6.1186-2.9268 8.6156-0.76604 1.787-2.7366 19.679 1.5859 18.061 2.9701-1.1113 5.7386-5.732 6.8896-7.948 1.267-2.4392 0.37208-2.7026 1.0001-5.2294 0.67644-2.722-1.1297-4.0676-0.10121-5.4582l1.0873 1.6436c4.6204-1.8471 5.5979-4.5535 7.1169-7.8444 0.73171-1.5854 1.7823-2.793 2.3798-4.3168 0.57388-1.4638 0.41377-3.8994 1.2204-5.1292 1.9594 0.53686-0.19081 1.9764 0.68287 2.8693 1.4531 0.11978 1.2867-2.0438 2.571-2.5244 2.3123-0.86518 0.65249 1.7171 0.18469 2.358-1.5616 2.1394-1.3082 1.2266-3.1372 2.8351-1.8805 1.6539-3.0691 4.5844-4.0205 6.6964-1.6975 3.7683-2.8151 3.2862-5.973 5.8072-1.1409 0.91091-0.58632 2.2503-0.65114 3.9672-0.070206 1.8627-0.7986 2.3158-0.63714 3.9735l1.3705-0.5128c1.4561-0.54474 2.2959-0.22794 3.0395 0.81582-1.4314 0.49963-1.4347 0.14622-2.1412 0.5408l-3.1265 1.0396c-0.0168 0.006222-4.1845 5.5245-4.4349 5.8001l5.2017-0.61858 0.27138 0.75162-3.5437 0.83977 1.7713 1.7044c-3.163 0.3081-3.4977-1.8775-6.6411 0.65674-1.7981 1.4497-3.1986 4.3633-2.2277 6.9582l0.38463 1.028c0.69127 1.8475 2.8482 2.4497 4.58 1.8017l1.7132-0.64098c2.4386-0.91246 2.1476-6.7661 5.9647-9.5063 4.8913-3.5113 1.3083-0.74105 3.7019-4.5674 0.79549-1.272 3.589-2.9949 5.5466-3.7274-0.20948-1.6124 0.38919-6.2673 0.090842-7.0648l-0.38463-1.0279c-0.95809-2.5607-3.7838-2.3202-4.7559-4.4115l0.52068-0.64398c1.1654 0.27533 4.4408 2.4732 5.0068 3.9857l0.64098 1.713c1.4996-1.0682 1.4338-2.88 4.3704-3.9787l0.34263-0.12828c1.1719-0.43845 3.1267 0.81716 3.7666 1.7154-2.9682 0.83759-2.2283-2.0955-6.3642 2.5023-1.3286 1.477-2.1346 4.739-1.7625 6.5003l2.2368 0.69459-0.11189 0.36067c-3.0791 1.0744-9.7946 3.2147-8.6514 6.4798l2.3935 0.97593-0.17048 0.41792c-1.7358 0.48988-1.5118-0.21549-2.9975 0.34045l-1.7131 0.64098c-3.0643 1.1466-5.2123 4.8602-3.988 8.1324 0.97344 2.6015 5.266 3.2025 7.6686 2.5335 3.6851-1.0262 2.7498-4.5053 3.9688-7.1821 1.5717-3.4508 4.7206-4.1816 5.0856-6.4956 0.42414-2.6898 2.1595-5.2955 5.555-6.566 0.22908-2.5564-0.65083-3.8489 0.63144-6.25 0.73949-1.3847 2.4114-4.2628 4.1723-4.9218l1.7132-0.64098c1.6733-0.62615 2.5423-0.54028 3.5966 0.21674-1.9414 0.67737-2.1633 0.028103-4.0255 0.72487l-0.68526 0.25635c-3.7482 1.4024-4.8367 6.6748-4.308 9.9537l3.5518 0.85895-0.10826 0.44778c-1.9494 0.55003-2.1526-0.36627-3.811 0.25417l-0.34263 0.12817c-2.8289 1.0585-5.1615 4.4403-4.8434 6.8901 1.7254-0.60219 2.4928-0.56092 3.3821 0.68754-1.6564 0.46728-1.9509-0.051332-3.6828 0.5967l-0.34263 0.12828c-3.4114 1.2764-4.8286 3.4275-5.0383 6.2328-0.10059 1.3452 0.014311 3.1708 1.2003 4.0536 0.7454 0.5548 3.2729 1.2525 4.1295 0.93206l2.7411-1.0257c4.7917-1.7928 3.1274-6.8408 6.002-10.626 0.95073-1.252 1.7009-0.99252 2.0961-2.1722 0.37799-1.1285-0.048014-1.443 0.69272-3.0955 0.71574-1.5967 2.2066-4.0493 4.1125-4.949l-0.38452-1.0278c-1.0567-2.8241 1.9536-8.5431 4.6312-9.545 2.2424-0.83904 3.1754-0.066783 5.1815-0.76697l0.5128 1.3706c-2.8951 0.81696-3.1166-1.6924-7.1886 2.1268-1.8394 1.7252-2.855 4.2429-1.8526 7.1152l1.0279-0.38463c1.31-0.49019 0.16406 0.058487 0.91298-0.75722l2.4692 1.4448c-1.736 0.48978-1.5119-0.21559-2.9976 0.34035l-0.68526 0.25635c-2.7323 1.0224-5.66 5.1154-4.9297 7.7036 1.8187-0.63465 2.1226-0.56289 3.0396 0.81571-2.081 0.58715-0.97095-0.41792-2.3123 0.083894l-0.68515 0.25645c-3.6342 1.3597-5.6201 6.9025-4.2468 10.573l0.5128 1.3705c0.40101 1.0718 0.97821 0.74074 1.8833 0.85781 1.3304-1.3847 2.2384-0.90085 3.9628-3.0274 1.4854-1.832 1.4294-2.0706 2.5008-3.9776 1.5314-2.7264 3.056-5.1669 4.73-7.7945 2.1878-3.434 2.5926-4.3612 3.9785-8.1368 0.49486-1.348 1.3875-2.8384 1.8979-4.252 0.45307-1.2547 0.64315-3.6205 1.2106-4.5651 1.6627-2.7677 3.365-4.5884 4.7205-7.7988 1.0642-2.5202 1.8717-6.1312 1.8084-9.1251-0.056828-2.6889-0.38587-7.5124-1.8511-10.45-0.77734-1.5585-0.71263-2.8747-2.2686-5.0256-1.1306-1.5628-2.7788-2.1494-3.4704-3.6145 2.0962-0.31546 1.2468-1.3758 2.838 0.62895 0.821 1.0342 1.6373 2.0276 2.1687 3.3567l1.0279-0.38463c-0.64865-2.2987 1.5096-7.7845 3.2608-9.032 0.46344 1.6426-2.4126 6.4792-2.6404 9.3146-0.29959 3.7305 1.2316 7.4665 1.7093 11.58 0.89193 7.679-1.2854 13.52-4.7014 19.178-1.27 2.1036-1.7068 1.3714-2.3058 4.0663-0.45027 2.0259-0.61567 2.9119-1.4085 4.7592-1.166 2.7171-2.4155 6.6542-4.0874 8.9398-2.5438 3.4777-8.1708 15.087-11.54 16.347-2.8664 1.0725-4.3434-0.12496-5.4357-3.0441-0.60997 0.68712-2.5079 2.1103-4.0695 2.6946-2.8704 1.074-7.7752 0.95633-8.862-1.762-0.53987 0.608-0.75401 1.0632-1.7994 1.4544-4.3679 1.6343-9.1268 1.4289-10.745-2.6197-0.70143 0.46655-0.65954 0.63745-1.585 0.98371l-3.769 1.4102c-1.6954 0.63434-4.1389-1.6664-4.8786-3.6431-1.7398-4.65 1.7635-6.688 2.4473-9.1183-1.0836 0.10546-2.1879-0.6276-2.6106-1.7575-1.0202-2.7265-0.097686-7.476-0.3643-10.399-0.41128-4.5109-0.092709-5.8141 1.6087-9.5002 3.1391-6.8006 2.1526-12.754 4.5245-18.69 2.0212-5.058 1.774-3.783 6.5318-7.2581 2.9563-2.1594 4.4932-4.5576 7.1458-6.9784 2.6543-2.4222 7.7004-2.78 9.902-5.7234 0.75276-1.0063 1.9202-2.7634 2.6546-3.9074 1.2363-1.9256 0.32085-3.3934 1.9145-4.5287 0.46479 3.5787-2.8845 7.0032-3.4751 9.503zm24.857 27.807c-0.0045628 0.007985-0.51104 0.58187-0.55718 0.59908-0.40827 0.15275-3.0897-0.47132-5.0928-0.051643-2.2478 0.47091-3.7485 1.0162-6.298 1.9701-4.5561 1.7048-8.0582 2.707-11.605 2.3893 0.41988-1.5326 2.8365-0.66928 4.7507-1.0694 1.7543-0.36658 4.979-1.79 6.8125-2.4761 4.2395-1.5862 9.4087-3.0542 11.99-1.3614zm-10.356-7.8431c-0.15047-1.5443 0.78108-2.3449 1.263-3.6886 0.55615-1.551-0.17349-2.7533 1.4827-3.5884 0.23281 1.7927-1.3586 6.2889-2.7457 7.277z"/>
</svg>
